<svg width="25" height="25" viewBox="0 0 25 25" fill="none" xmlns="http://www.w3.org/2000/svg">
<g clip-path="url(#clip0_43_299)">
<path d="M7.75259 1.13177C9.25819 0.526761 10.869 0.227023 12.4915 0.249974C15.7087 0.295485 18.7788 1.60548 21.0378 3.89668C23.2968 6.18789 24.5633 9.27617 24.5633 12.4938C24.5633 15.7113 23.2968 18.7996 21.0378 21.0908C18.7788 23.382 15.7087 24.692 12.4915 24.7375C10.869 24.7605 9.25819 24.4607 7.75259 23.8557C6.24699 23.2507 4.87665 22.3525 3.7212 21.2133C2.56576 20.0741 1.64825 18.7166 1.02201 17.2197C0.395766 15.7228 0.0732727 14.1164 0.0732727 12.4938C0.0732727 10.8711 0.395766 9.26471 1.02201 7.76781C1.64825 6.27092 2.56576 4.91342 3.7212 3.77421C4.87665 2.63499 6.24699 1.73678 7.75259 1.13177ZM2.98278 8.52888C2.47763 9.79054 2.22855 11.1401 2.25004 12.499C2.29257 15.1877 3.39052 17.7519 5.30696 19.6383C7.22341 21.5247 9.80468 22.5819 12.4938 22.5819C15.1828 22.5819 17.7641 21.5247 19.6806 19.6383C21.597 17.7519 22.695 15.1877 22.7375 12.499C22.759 11.1401 22.5099 9.79054 22.0047 8.52888C21.4996 7.26723 20.7485 6.11868 19.7951 5.15013C18.8418 4.18159 17.7053 3.4124 16.4517 2.88736C15.1982 2.36232 13.8528 2.09193 12.4938 2.09193C11.1347 2.09193 9.78929 2.36232 8.53577 2.88736C7.28226 3.4124 6.14574 4.18159 5.19239 5.15013C4.23904 6.11868 3.48792 7.26723 2.98278 8.52888ZM7.75001 12.5C7.75001 12.2348 7.85537 11.9804 8.0429 11.7929C8.23044 11.6054 8.48479 11.5 8.75001 11.5H16.25C16.5152 11.5 16.7696 11.6054 16.9571 11.7929C17.1447 11.9804 17.25 12.2348 17.25 12.5C17.25 12.7652 17.1447 13.0196 16.9571 13.2071C16.7696 13.3946 16.5152 13.5 16.25 13.5H8.75001C8.48479 13.5 8.23044 13.3946 8.0429 13.2071C7.85537 13.0196 7.75001 12.7652 7.75001 12.5Z" fill="#FEFEFF" stroke="#FEFEFF" stroke-width="0.5"/>
</g>
<defs>
<clipPath id="clip0_43_299">
<rect width="25" height="25" fill="white"/>
</clipPath>
</defs>
</svg>
