<svg width="30" height="30" viewBox="0 0 30 30" fill="none" xmlns="http://www.w3.org/2000/svg">
<mask id="mask0_290_243" style="mask-type:alpha" maskUnits="userSpaceOnUse" x="0" y="0" width="30" height="30">
<rect width="30" height="30" fill="#D9D9D9"/>
</mask>
<g mask="url(#mask0_290_243)">
<path d="M10 15.9375H20C20.2656 15.9375 20.4883 15.8476 20.668 15.6678C20.8476 15.4881 20.9375 15.2653 20.9375 14.9996C20.9375 14.7338 20.8476 14.5112 20.668 14.3318C20.4883 14.1523 20.2656 14.0625 20 14.0625H10C9.73437 14.0625 9.51173 14.1524 9.33206 14.3322C9.15237 14.5119 9.06253 14.7347 9.06253 15.0004C9.06253 15.2662 9.15237 15.4888 9.33206 15.6683C9.51173 15.8477 9.73437 15.9375 10 15.9375ZM15.0021 26.875C13.3597 26.875 11.8159 26.5633 10.3707 25.94C8.92553 25.3166 7.66843 24.4707 6.59941 23.4022C5.53036 22.3336 4.68404 21.077 4.06044 19.6325C3.43683 18.188 3.12503 16.6445 3.12503 15.0021C3.12503 13.3597 3.4367 11.8159 4.06003 10.3707C4.68336 8.92553 5.5293 7.66843 6.59784 6.59941C7.66641 5.53037 8.92296 4.68404 10.3675 4.06044C11.812 3.43683 13.3555 3.12503 14.9979 3.12503C16.6403 3.12503 18.1841 3.4367 19.6293 4.06003C21.0745 4.68337 22.3316 5.5293 23.4006 6.59784C24.4696 7.66641 25.316 8.92296 25.9396 10.3675C26.5632 11.812 26.875 13.3555 26.875 14.9979C26.875 16.6403 26.5633 18.1841 25.94 19.6293C25.3166 21.0745 24.4707 22.3316 23.4022 23.4006C22.3336 24.4696 21.077 25.316 19.6325 25.9396C18.188 26.5632 16.6445 26.875 15.0021 26.875ZM15 25C17.7917 25 20.1563 24.0313 22.0938 22.0938C24.0313 20.1563 25 17.7917 25 15C25 12.2083 24.0313 9.84375 22.0938 7.90625C20.1563 5.96875 17.7917 5 15 5C12.2083 5 9.84375 5.96875 7.90625 7.90625C5.96875 9.84375 5 12.2083 5 15C5 17.7917 5.96875 20.1563 7.90625 22.0938C9.84375 24.0313 12.2083 25 15 25Z" fill="#FEFEFF"/>
</g>
</svg>
