<svg width="35" height="35" viewBox="0 0 35 35" fill="none" xmlns="http://www.w3.org/2000/svg">
<path d="M18.1666 17.5C18.1666 17.8682 17.8682 18.1667 17.5 18.1667C17.1318 18.1667 16.8333 17.8682 16.8333 17.5C16.8333 17.1318 17.1318 16.8333 17.5 16.8333C17.8682 16.8333 18.1666 17.1318 18.1666 17.5Z" fill="#C3C2C3" stroke="#C3C2C3" stroke-width="2"/>
<path d="M18.1666 9.16667C18.1666 9.53486 17.8682 9.83333 17.5 9.83333C17.1318 9.83333 16.8333 9.53486 16.8333 9.16667C16.8333 8.79848 17.1318 8.5 17.5 8.5C17.8682 8.5 18.1666 8.79848 18.1666 9.16667Z" fill="#C3C2C3" stroke="#C3C2C3" stroke-width="2"/>
<path d="M18.1666 25.8333C18.1666 26.2015 17.8682 26.5 17.5 26.5C17.1318 26.5 16.8333 26.2015 16.8333 25.8333C16.8333 25.4651 17.1318 25.1667 17.5 25.1667C17.8682 25.1667 18.1666 25.4651 18.1666 25.8333Z" fill="#C3C2C3" stroke="#C3C2C3" stroke-width="2"/>
</svg>
