<svg width="20" height="20" viewBox="0 0 20 20" fill="none" xmlns="http://www.w3.org/2000/svg">
<path d="M12.3809 16.1905C11.7457 17.1429 10.9524 17.619 10 17.619C9.04761 17.619 8.25428 17.1429 7.61904 16.1905M14.8429 14.7619H5.15714C4.87889 14.762 4.60559 14.6883 4.36519 14.5482C4.12478 14.4081 3.92588 14.2067 3.78882 13.9645C3.65176 13.7224 3.58146 13.4482 3.5851 13.1699C3.58873 12.8917 3.66618 12.6194 3.80952 12.381C4.74421 10.8231 5.238 9.04054 5.23809 7.22381V6.19047C5.23809 5.18013 5.63945 4.21116 6.35387 3.49673C7.0683 2.78231 8.03727 2.38095 9.04761 2.38095H10.9524C11.9627 2.38095 12.9317 2.78231 13.6461 3.49673C14.3605 4.21116 14.7619 5.18013 14.7619 6.19047V7.22381C14.7619 9.04 15.2552 10.8238 16.1905 12.381C16.3338 12.6194 16.4113 12.8917 16.4149 13.1699C16.4185 13.4482 16.3482 13.7224 16.2112 13.9645C16.0741 14.2067 15.8752 14.4081 15.6348 14.5482C15.3944 14.6883 15.1211 14.762 14.8429 14.7619Z" stroke="#FEFEFF" stroke-linecap="round" stroke-linejoin="round"/>
</svg>
