<svg width="30" height="30" viewBox="0 0 30 30" fill="none" xmlns="http://www.w3.org/2000/svg">
<mask id="mask0_291_291" style="mask-type:alpha" maskUnits="userSpaceOnUse" x="0" y="0" width="30" height="30">
<rect width="30" height="30" fill="#D9D9D9"/>
</mask>
<g mask="url(#mask0_291_291)">
<path d="M0.913544 18.4375V11.5625H2.78845V18.4375H0.913544ZM4.51929 20.9375V9.06253H6.39426V20.9375H4.51929ZM27.2115 18.4375V11.5625H29.0865V18.4375H27.2115ZM23.6058 20.9375V9.06253H25.4807V20.9375H23.6058ZM10.3847 25.625C9.76127 25.625 9.22883 25.4042 8.78733 24.9627C8.3458 24.5212 8.12504 23.9887 8.12504 23.3653V6.63466C8.12504 6.01126 8.3458 5.47881 8.78733 5.03731C9.22883 4.59579 9.76127 4.37503 10.3847 4.37503H19.6154C20.2388 4.37503 20.7712 4.59579 21.2127 5.03731C21.6542 5.47881 21.875 6.01126 21.875 6.63466V23.3653C21.875 23.9887 21.6542 24.5212 21.2127 24.9627C20.7712 25.4042 20.2388 25.625 19.6154 25.625H10.3847ZM10.3847 23.75H19.6154C19.7275 23.75 19.8197 23.7139 19.8918 23.6418C19.964 23.5697 20 23.4775 20 23.3653V6.63466C20 6.52247 19.964 6.43031 19.8918 6.35819C19.8197 6.28606 19.7275 6.25 19.6154 6.25H10.3847C10.2725 6.25 10.1803 6.28606 10.1082 6.35819C10.0361 6.43031 10 6.52247 10 6.63466V23.3653C10 23.4775 10.0361 23.5697 10.1082 23.6418C10.1803 23.7139 10.2725 23.75 10.3847 23.75Z" fill="#FEFEFF"/>
</g>
</svg>
