<svg width="20" height="20" viewBox="0 0 20 20" fill="none" xmlns="http://www.w3.org/2000/svg">
<path d="M1.21832 12.0833V7.91668H2.05166V12.0833H1.21832ZM3.52582 13.75V6.25001H4.35916V13.75H3.52582ZM17.9483 12.0833V7.91668H18.7817V12.0833H17.9483ZM15.6408 13.75V6.25001H16.4742V13.75H15.6408ZM7.17916 16.6667C6.80693 16.6667 6.48943 16.5356 6.22666 16.2733C5.96443 16.0111 5.83332 15.6936 5.83332 15.3208V4.67918C5.83332 4.30695 5.96443 3.98945 6.22666 3.72668C6.48888 3.46445 6.80638 3.33334 7.17916 3.33334H12.8208C13.193 3.33334 13.5105 3.46445 13.7733 3.72668C14.0355 3.9889 14.1667 4.3064 14.1667 4.67918V15.3208C14.1667 15.6931 14.0355 16.0106 13.7733 16.2733C13.5111 16.5356 13.1936 16.6667 12.8208 16.6667H7.17916ZM7.17916 15.8333H12.8208C12.9703 15.8333 13.093 15.7853 13.1892 15.6892C13.2853 15.5931 13.3333 15.4703 13.3333 15.3208V4.67918C13.3333 4.52973 13.2853 4.40695 13.1892 4.31084C13.093 4.21473 12.9703 4.16668 12.8208 4.16668H7.17916C7.02971 4.16668 6.90693 4.21473 6.81082 4.31084C6.71471 4.40695 6.66666 4.52973 6.66666 4.67918V15.3208C6.66666 15.4703 6.71471 15.5931 6.81082 15.6892C6.90693 15.7853 7.02971 15.8333 7.17916 15.8333Z" fill="#FEFEFF"/>
</svg>
