<svg width="20" height="20" viewBox="0 0 20 20" fill="none" xmlns="http://www.w3.org/2000/svg">
<path d="M10 11.2792V2.5H16.6667V4.16667H11.6667V14.1667C11.6665 14.9004 11.4242 15.6136 10.9775 16.1956C10.5307 16.7777 9.9043 17.196 9.19553 17.3858C8.48675 17.5756 7.73515 17.5262 7.05729 17.2453C6.37944 16.9644 5.8132 16.4677 5.4464 15.8323C5.0796 15.1968 4.93272 14.458 5.02856 13.7306C5.12439 13.0031 5.45758 12.3276 5.97645 11.8088C6.49532 11.29 7.17087 10.9568 7.89834 10.8611C8.62582 10.7653 9.36456 10.9123 10 11.2792ZM8.33334 15.8333C8.77537 15.8333 9.19929 15.6577 9.51185 15.3452C9.82441 15.0326 10 14.6087 10 14.1667C10 13.7246 9.82441 13.3007 9.51185 12.9882C9.19929 12.6756 8.77537 12.5 8.33334 12.5C7.89131 12.5 7.46739 12.6756 7.15483 12.9882C6.84227 13.3007 6.66667 13.7246 6.66667 14.1667C6.66667 14.6087 6.84227 15.0326 7.15483 15.3452C7.46739 15.6577 7.89131 15.8333 8.33334 15.8333Z" fill="#FEFEFF"/>
</svg>
